<svg width="300" height="300" viewBox="0 0 300 300" fill="none" xmlns="http://www.w3.org/2000/svg">
<path d="M145.35 1.23448C146.766 0.425503 148.369 0 150 0C151.631 0 153.234 0.425503 154.65 1.23448L224.963 41.4157C226.397 42.2354 227.59 43.4197 228.42 44.8487C229.25 46.2778 229.687 47.9007 229.688 49.5532V124.459L295.275 161.959C296.704 162.776 297.894 163.954 298.723 165.376C299.552 166.798 299.993 168.413 300 170.059V250.422C299.999 252.074 299.562 253.697 298.732 255.126C297.903 256.556 296.71 257.74 295.275 258.559L224.963 298.741C223.546 299.55 221.943 299.975 220.312 299.975C218.682 299.975 217.079 299.55 215.662 298.741L150 261.241L84.3375 298.759C82.9213 299.568 81.3185 299.994 79.6875 299.994C78.0565 299.994 76.4537 299.568 75.0375 298.759L4.725 258.578C3.29012 257.759 2.09737 256.574 1.2676 255.145C0.437836 253.716 0.000533007 252.093 0 250.441L0 170.078C0.000533007 168.426 0.437836 166.803 1.2676 165.374C2.09737 163.945 3.29012 162.76 4.725 161.941L70.3125 124.459V49.5532C70.313 47.9007 70.7503 46.2778 71.5801 44.8487C72.4099 43.4197 73.6026 42.2354 75.0375 41.4157L145.35 1.23448ZM79.6875 140.697L28.275 170.078L79.6875 199.459L131.1 170.078L79.6875 140.697ZM140.625 186.241L89.0625 215.697V274.459L140.625 245.003V186.241ZM159.375 245.003L210.938 274.459V215.697L159.375 186.241V245.003ZM168.9 170.078L220.312 199.459L271.725 170.078L220.312 140.697L168.9 170.078ZM210.938 124.459V65.697L159.375 95.172V153.934L210.938 124.459ZM140.625 153.934V95.172L89.0625 65.697V124.459L140.625 153.934ZM98.5875 49.5532L150 78.9345L201.412 49.5532L150 20.172L98.5875 49.5532ZM281.25 186.241L229.688 215.697V274.459L281.25 245.003V186.241ZM70.3125 274.459V215.697L18.75 186.241V245.003L70.3125 274.459Z" fill="#FFC21F"/>
</svg>
